<?xml version="1.0" encoding="UTF-8" standalone="no"?>
<svg
   xmlns:dc="http://purl.org/dc/elements/1.1/"
   xmlns:cc="http://creativecommons.org/ns#"
   xmlns:rdf="http://www.w3.org/1999/02/22-rdf-syntax-ns#"
   xmlns:svg="http://www.w3.org/2000/svg"
   xmlns="http://www.w3.org/2000/svg"
   viewBox="0 0 348.95815 419.84038"
   version="1.1"
   id="svg2"
   height="111.08276mm"
   width="92.301567mm">
  <defs
     id="defs4" />
  <metadata
     id="metadata7">
    <rdf:RDF>
      <cc:Work
         rdf:about="">
        <dc:format>image/svg+xml</dc:format>
        <dc:type
           rdf:resource="http://purl.org/dc/dcmitype/StillImage" />
        <dc:title></dc:title>
      </cc:Work>
    </rdf:RDF>
  </metadata>
  <g
     transform="translate(-195.52053,-92.427324)"
     id="layer1">
    <path
       id="path2987-5"
       transform="translate(195.50772,92.362185)"
       d="M 174.49219,0 C 95.461229,-5.6450684e-7 46.710396,33.464296 21.480469,81.496094 34.463355,143.68 174.53711,167.92188 174.53711,167.92188 c 0,0 139.98812,-24.14505 153.03711,-86.291021 C 302.36469,33.527043 253.59689,2.8251679e-7 174.49219,0 Z M 18.625,87.222656 C -39.635586,209.62269 46.383306,417.77807 172.49414,419.96289 l -0.0605,-248.27344 c 0,0 -135.313317,-23.18308 -153.80859,-84.466794 z m 311.79297,0.125 C 311.80723,148.55748 176.64062,171.68945 176.64062,171.68945 l -0.0781,248.27344 C 302.59111,417.70058 388.54969,209.74094 330.41797,87.347656 Z"
       style="fill:#ee0235;fill-opacity:1;stroke:none;stroke-width:4;stroke-linecap:butt;stroke-linejoin:miter;stroke-miterlimit:4;stroke-dasharray:none;stroke-opacity:1" />
  </g>
</svg>
