<?xml version="1.0" encoding="UTF-8"?>
<svg width="139.78mm" height="65.939mm" version="1.1" viewBox="0 0 139.78 65.939" xmlns="http://www.w3.org/2000/svg">
 <g transform="translate(-34.185 -118.4)" fill="#ee0235">
  <g transform="matrix(.26458 0 0 .26458 42.69 17.505)" fill="#ee0235" stroke-width="3.7796">
   <g transform="matrix(.58763 0 0 .58763 -147.04 328.74)" fill="#ee0235" stroke-width="6.4319">
    <path transform="translate(195.51 92.362)" d="m174.49 0c-79.031-5.6451e-7 -127.78 33.464-153.01 81.496 12.983 62.184 153.06 86.426 153.06 86.426s139.99-24.145 153.04-86.291c-25.21-48.104-73.977-81.631-153.08-81.631zm-155.87 87.223c-58.261 122.4 27.758 330.56 153.87 332.74l-0.0605-248.27s-135.31-23.183-153.81-84.467zm311.79 0.125c-18.611 61.21-153.78 84.342-153.78 84.342l-0.0781 248.27c126.03-2.2623 211.99-210.22 153.86-332.62zm565.18 269.55v10.029q-4.4958-2.3055-9.3374-3.4583t-10.029-1.1528q-7.8964 0-11.873 2.4208-3.9194 2.4208-3.9194 7.2624 0 3.6888 2.8243 5.8214 2.8243 2.075 11.355 3.977l3.6312 0.80694q11.297 2.4208 16.023 6.8589 4.784 4.3805 4.784 12.277 0 8.9915-7.1471 14.237-7.0895 5.245-19.539 5.245-5.1874 0-10.836-1.0375-5.5909-0.97983-11.816-2.9972v-10.951q5.8791 3.0548 11.585 4.611 5.7062 1.4986 11.297 1.4986 7.493 0 11.528-2.5361 4.0347-2.5937 4.0347-7.2624 0-4.3228-2.9396-6.6284-2.8819-2.3055-12.738-4.4381l-3.6888-0.86457q-9.8561-2.075-14.237-6.3402-4.3805-4.3228-4.3805-11.816 0-9.1068 6.4555-14.064 6.4554-4.9568 18.329-4.9568 5.8791 0 11.066 0.86457 5.1874 0.86457 9.5679 2.5937zm-62.422 23.689v38.963h-10.605v-38.617q0-9.1644-3.5736-13.718-3.5735-4.5534-10.721-4.5534-8.5881 0-13.545 5.4756-4.9568 5.4756-4.9568 14.928v36.485h-10.663v-64.555h10.663v10.029q3.8041-5.8214 8.9339-8.7033 5.1874-2.8819 11.931-2.8819 11.124 0 16.83 6.9165 5.7062 6.8589 5.7062 20.231zm-100.81-18.156q-8.5304 0-13.487 6.686-4.9569 6.6284-4.9569 18.214 0 11.585 4.8992 18.271 4.9568 6.6284 13.545 6.6284 8.4728 0 13.43-6.686 4.9569-6.686 4.9569-18.214 0-11.47-4.9569-18.156-4.9569-6.7436-13.43-6.7436zm0-8.9915q13.833 0 21.73 8.9915 7.8964 8.9915 7.8964 24.9 0 15.85-7.8964 24.9-7.8964 8.9915-21.73 8.9915-13.891 0-21.787-8.9915-7.8388-9.0492-7.8388-24.9 0-15.908 7.8388-24.9 7.8964-8.9915 21.787-8.9915zm-57.753 1.5562h10.605v64.555h-10.605zm0-25.13h10.605v13.43h-10.605zm-35.851 6.8013v18.329h21.845v8.2422h-21.845v35.044q0 7.8964 2.1326 10.144 2.1903 2.2479 8.8186 2.2479h10.894v8.8762h-10.894q-12.277 0-16.946-4.5534-4.6687-4.611-4.6687-16.715v-35.044h-7.7811v-8.2422h7.7811v-18.329zm-86.515 57.407v-39.079h10.605v38.675q0 9.1644 3.5736 13.775 3.5736 4.5534 10.721 4.5534 8.588 0 13.545-5.4756 5.0145-5.4756 5.0145-14.928v-36.6h10.605v64.555h-10.605v-9.9137q-3.8618 5.8791-8.9915 8.761-5.0722 2.8243-11.816 2.8243-11.124 0-16.888-6.9166-5.7638-6.9166-5.7638-20.231zm26.686-40.635m-58.33-23.574h10.605v89.685h-10.605zm-47.148 32.565q-8.5304 0-13.487 6.686-4.9569 6.6284-4.9569 18.214 0 11.585 4.8992 18.271 4.9569 6.6284 13.545 6.6284 8.4728 0 13.43-6.686 4.9569-6.686 4.9569-18.214 0-11.47-4.9569-18.156-4.9569-6.7436-13.43-6.7436zm0-8.9915q13.833 0 21.73 8.9915 7.8964 8.9915 7.8964 24.9 0 15.85-7.8964 24.9-7.8964 8.9915-21.73 8.9915-13.891 0-21.787-8.9915-7.8388-9.0492-7.8388-24.9 0-15.908 7.8388-24.9 7.8964-8.9915 21.787-8.9915zm-47.897-17.118v11.355q-6.6284-3.1701-12.507-4.7263-5.8791-1.5562-11.355-1.5562-9.5103 0-14.698 3.6888-5.1298 3.6888-5.1298 10.49 0 5.7062 3.4006 8.6457 3.4583 2.8819 13.026 4.6687l7.0318 1.4409q13.026 2.4784 19.193 8.761 6.2249 6.2249 6.2249 16.715 0 12.507-8.4152 18.963-8.3575 6.4555-24.554 6.4555-6.1096 0-13.026-1.3833-6.8589-1.3833-14.237-4.0923v-11.989q7.0895 3.977 13.891 5.9944 6.8013 2.0173 13.372 2.0173 9.9714 0 15.389-3.9194 5.418-3.9194 5.418-11.182 0-6.3402-3.9194-9.9137-3.8618-3.5736-12.738-5.3604l-7.0894-1.3833q-13.026-2.5937-18.848-8.1269-5.8214-5.5333-5.8214-15.389 0-11.412 8.0117-17.983 8.0693-6.5707 22.191-6.5707 6.052 0 12.335 1.0951 6.2826 1.0951 12.853 3.2854zm364.81-197.88c-46.163 0-73.804 31.622-73.804 78.38 0 48.109 27.356 79.461 74.374 79.461 44.454 0 71.81-32.433 71.81-79.461s-26.786-78.38-72.38-78.38m0.85486 20.811c29.066 0 45.308 23.244 45.308 57.298 0 35.947-16.243 58.92-47.303 58.92-29.351 0-46.448-23.514-46.448-57.839 0-35.947 17.667-58.379 48.443-58.379m-151.44 75.407c-4.1242 9.1893-10.152 28.379-13.007 38.379-2.538-9.7299-8.883-27.838-12.69-37.028l-36.801-85.137c-2.2208-5.4055-6.9795-7.5677-12.69-7.5677-1.9035 0-4.1242 0.27029-6.345 0.81082-6.0277 1.3514-10.152 5.4055-10.152 10.541 0 1.3514 0.31725 2.7028 0.95174 4.3244l58.374 126.22c3.807 8.3785 10.469 11.081 19.035 11.081 8.2485 0 15.228-2.4325 19.035-10.811l58.374-126.49c0.95174-1.6216 1.269-3.2433 1.269-4.5947 0-5.1352-4.1242-8.6488-10.469-10.27-2.2207-0.54053-4.1242-0.81082-6.0277-0.81082-5.7105 0-10.152 2.4325-12.69 7.838l-36.166 83.515m-144.1-95.138-75.59-134.47c-3.3154-5.666-7.6254-7.9325-11.935-7.9325-2.9838 0-5.9677 1.1332-8.9515 2.6442-5.3046 3.3996-9.6146 9.0657-9.6146 15.487 0 2.6442 0.66308 4.9106 1.9892 7.5547l88.189 150.34v107.65c0 10.199 6.2992 15.487 15.914 15.487 8.9515 0 15.582-5.2883 15.582-15.487v-107.65l87.526-149.58c1.6577-2.6442 2.3208-5.666 2.3208-8.3102 0-6.4215-3.9785-12.088-8.9515-15.109-2.9838-1.8887-5.9676-3.0219-8.9515-3.0219-4.6415 0-8.9515 2.2664-11.935 7.9325l-75.59 134.47" fill="#ee0235" stroke-width="6.4319"/>
   </g>
  </g>
 </g>
</svg>
