<?xml version="1.0" encoding="UTF-8"?>
<svg width="55.858" height="14.4" version="1.1" viewBox="0 0 80.071 44.526" xml:space="preserve" xmlns="http://www.w3.org/2000/svg">
    <g id="Capsule_logo_color-rgb" transform="translate(-46.324)"><g fill="#0f1f80">
        <path id="Path" d="m20.638 26.847-0.21922-0.67887-0.36065 0.61876c-1.5628 2.6837-4.2076 4.1616-7.4499 4.1616-4.9855 0-8.7405-4.0485-8.7405-9.4123 0-5.3284 3.7798-9.5042 8.6061-9.5042 3.3731 0 5.7952 1.3471 7.6161 4.2359l0.36065 0.5728 0.21215-0.64351c0.36772-1.1173 0.85212-2.1993 1.4426-3.2211l0.11314-0.19447-0.1485-0.17325c-2.3301-2.7013-5.5229-4.1298-9.239-4.1298-7.1953-0.0035341-12.831 5.7527-12.831 13.1 0 7.2696 5.5972 12.969 12.743 12.969 3.801 0 7.0185-1.4108 9.3097-4.0803l0.1485-0.16972-0.11314-0.198c-0.59755-1.0324-1.0855-2.125-1.4497-3.2529"/>
        <path id="Shape" d="m35.761 12.121c4.6566 0 8.7405 4.3137 8.7405 9.2319 0 5.7633-4.5647 9.6386-8.8324 9.6386-4.9183 0-8.9208-4.1404-8.9208-9.2355 0.0035-5.4027 3.9601-9.635 9.0127-9.635zm8.7405 0.28993c-2.125-2.4574-5.1587-3.801-8.6521-3.801-7.365 0-12.923 5.5936-12.923 13.012 0 7.3403 5.4416 12.877 12.655 12.877 3.5782 0 6.8417-1.4178 8.9208-3.8328v3.207h3.6454v-24.726h-3.6454z"/>
        <path d="m73.703 21.756c0 5.0915-4.0025 9.2355-8.9208 9.2355-5.2542 0-8.7829-4.9819-8.7829-9.6386 0-4.9183 4.0626-9.2319 8.6945-9.2319 5.0491 0 9.0092 4.2323 9.0092 9.635m-9.0552-13.146c-3.412 0-6.7003 1.478-8.6521 3.8328v-3.2954h-3.6878v35.379h3.6878v-13.864c2.125 2.4821 5.24 3.8363 8.8748 3.8363 7.2378 0 12.697-5.537 12.697-12.877 0-7.4181-5.5547-13.012-12.92-13.012"/>
        <path d="m83.356 26.158v0.09193c0 3.207 2.5564 5.3178 5.5547 5.3178 2.9418 0 5.6113-1.6972 5.6113-4.0838 0-2.6129-2.1674-3.7585-5.834-4.8617-4.6637-1.3754-7.998-2.567-7.998-7.061 0-3.854 3.8894-6.9266 8.6662-6.9266 5.0526 0 8.2737 2.4786 8.4965 6.7887h-4.1086c-0.16618-2.3867-1.8881-3.6701-4.6107-3.6701-2.5564 0-4.6001 1.6052-4.6001 3.6242 0 1.5133 0.87688 2.4291 2.4326 3.2105 1.8315 0.96173 3.8575 1.3188 5.8022 2.0083 3.7762 1.3295 5.583 3.2635 5.583 6.6119 0 4.2182-3.9954 7.3368-9.4971 7.3368-5.4981 0-9.2744-3.161-9.4406-8.3904h3.9424z"/>
        <path d="m117.99 21.307c0 2.8145 0 4.8476-0.98649 6.52-1.2163 2.0401-3.26 3.1186-5.9154 3.1186-4.7698 0-6.5412-2.3584-6.5412-8.6945v-13.104h-3.6878v12.881c0 8.8607 2.9382 12.474 10.141 12.474 3.0372 0 5.1764-0.81677 6.9938-2.7084v2.0826h3.7338v-24.729h-3.7338v12.16z"/>
        <polygon points="127.43 33.873 131.17 33.873 131.17 0 127.43 0"/>
        </g><path d="m143.89 12.029c-4.402 0-7.7222 2.9418-8.5495 7.5242h17.481c-1.2022-4.9925-4.2076-7.5242-8.9314-7.5242" fill="#9e0017"/>
        <path d="m153.78 2.8817c-5.6572 0-10.731 2.4821-14.203 6.4139 1.4532-0.52683 3.0478-0.8203 4.7556-0.8203 7.4252 0 12.609 5.6643 12.609 13.775v0.54098h-21.724c0.51269 4.8935 4.0449 8.1535 8.889 8.1535 2.9382 0 5.4416-1.3047 7.0786-3.6313h4.3773c-2.3831 4.6708-6.375 7.2307-11.368 7.2307-1.98 0-3.8469-0.47026-5.5229-1.287 3.4615 4.5612 8.9385 7.5135 15.105 7.5135 10.462 0 18.941-8.4824 18.941-18.945 4e-3 -10.462-8.4753-18.945-18.938-18.945" fill="#9e0017"/>
        <polygon points="168.22 5.8729 168.22 3.7515 167.41 3.7515 167.41 3.4651 169.36 3.4651 169.36 3.7515 168.55 3.7515 168.55 5.8729" fill="#0f1f80"/>
        <path d="m169.66 3.4651h0.46672l0.69302 2.0366 0.68948-2.0366h0.46318v2.4114h-0.31114v-1.4214c0-0.049501 0-0.13082 4e-3 -0.24397s4e-3 -0.2369 4e-3 -0.36772l-0.68948 2.0331h-0.32176l-0.69655-2.0331v0.074252c0 0.060108 4e-3 0.1485 7e-3 0.26872 4e-3 0.12022 4e-3 0.20861 4e-3 0.26872v1.4214h-0.31115v-2.4114z" fill="#0f1f80"/>
    </g>
</svg>
