<?xml version="1.0" encoding="UTF-8" standalone="no"?>
<!-- Created with Inkscape (http://www.inkscape.org/) -->

<svg
   xmlns:dc="http://purl.org/dc/elements/1.1/"
   xmlns:cc="http://creativecommons.org/ns#"
   xmlns:rdf="http://www.w3.org/1999/02/22-rdf-syntax-ns#"
   xmlns:svg="http://www.w3.org/2000/svg"
   xmlns="http://www.w3.org/2000/svg"
   xmlns:sodipodi="http://sodipodi.sourceforge.net/DTD/sodipodi-0.dtd"
   xmlns:inkscape="http://www.inkscape.org/namespaces/inkscape"
   width="567.59833mm"
   height="158.01631mm"
   viewBox="0 0 567.59833 158.01631"
   version="1.1"
   id="svg278"
   inkscape:version="0.92.4 (5da689c313, 2019-01-14)"
   sodipodi:docname="Logo Dassault 2020.svg">
  <defs
     id="defs272">
    <clipPath
       clipPathUnits="userSpaceOnUse"
       id="clipPath96">
      <path
         d="M 157.338,189.879 H 34.016 v -34.333 h 123.322 z"
         id="path94"
         inkscape:connector-curvature="0" />
    </clipPath>
    <clipPath
       clipPathUnits="userSpaceOnUse"
       id="clipPath104">
      <path
         d="m 34.016,189.874 h 123.307 v -36 H 34.016 Z"
         id="path102"
         inkscape:connector-curvature="0"
         style="clip-rule:evenodd" />
    </clipPath>
    <clipPath
       clipPathUnits="userSpaceOnUse"
       id="clipPath112">
      <path
         d="M 0,841.89 H 595.276 V 0 H 0 Z"
         id="path110"
         inkscape:connector-curvature="0" />
    </clipPath>
    <clipPath
       clipPathUnits="userSpaceOnUse"
       id="clipPath120">
      <path
         d="m 0.015,841.89 h 595.29 V 0 H 0.015 Z"
         id="path118"
         inkscape:connector-curvature="0" />
    </clipPath>
  </defs>
  <sodipodi:namedview
     id="base"
     pagecolor="#ffffff"
     bordercolor="#666666"
     borderopacity="1.0"
     inkscape:pageopacity="0.0"
     inkscape:pageshadow="2"
     inkscape:zoom="0.35"
     inkscape:cx="1627.7963"
     inkscape:cy="474.44483"
     inkscape:document-units="mm"
     inkscape:current-layer="layer1"
     showgrid="false"
     inkscape:pagecheckerboard="true"
     fit-margin-top="0"
     fit-margin-left="0"
     fit-margin-right="0"
     fit-margin-bottom="0"
     inkscape:window-width="1920"
     inkscape:window-height="1001"
     inkscape:window-x="-9"
     inkscape:window-y="-9"
     inkscape:window-maximized="1" />
  <metadata
     id="metadata275">
    <rdf:RDF>
      <cc:Work
         rdf:about="">
        <dc:format>image/svg+xml</dc:format>
        <dc:type
           rdf:resource="http://purl.org/dc/dcmitype/StillImage" />
        <dc:title></dc:title>
      </cc:Work>
    </rdf:RDF>
  </metadata>
  <g
     inkscape:label="Calque 1"
     inkscape:groupmode="layer"
     id="layer1"
     transform="translate(186.28131,-97.039472)">
    <g
       transform="matrix(4.6031317,0,0,-4.6031317,-342.86146,971.0545)"
       id="g90">
      <g
         id="g92"
         clip-path="url(#clipPath96)">
        <g
           id="g98">
          <g
             id="g100"
             clip-path="url(#clipPath104)">
            <g
               id="g106">
              <g
                 id="g108"
                 clip-path="url(#clipPath112)">
                <g
                   id="g114">
                  <g
                     id="g116"
                     clip-path="url(#clipPath120)">
                    <g
                       id="g122"
                       transform="translate(71.686005,155.657)">
                      <path
                         d="m 0,0 -2.658,12.285 h -3.04 L -13.87,0 h 3.146 l 5.93,9.002 0.867,-4.177 H -6.292 L -7.896,2.389 h 4.51 L -2.888,0 H 0"
                         style="fill:#24486d;fill-opacity:1;fill-rule:nonzero;stroke:none"
                         id="path124"
                         inkscape:connector-curvature="0" />
                    </g>
                    <g
                       id="g126"
                       transform="translate(102.25999,155.657)">
                      <path
                         d="m 0,0 -2.658,12.285 h -3.04 L -13.87,0 h 3.146 l 5.93,9.002 0.867,-4.177 H -6.291 L -7.896,2.389 h 4.51 L -2.888,0 H 0"
                         style="fill:#24486d;fill-opacity:1;fill-rule:nonzero;stroke:none"
                         id="path128"
                         inkscape:connector-curvature="0" />
                    </g>
                    <g
                       id="g130"
                       transform="translate(87.291,167.942)">
                      <path
                         d="m 0,0 -3.647,-12.281 h 3.065 L 3.062,0 H 0"
                         style="fill:#24486d;fill-opacity:1;fill-rule:nonzero;stroke:none"
                         id="path132"
                         inkscape:connector-curvature="0" />
                    </g>
                    <g
                       id="g134"
                       transform="translate(116.54401,167.942)">
                      <path
                         d="m 0,0 -3.647,-12.281 h 3.065 L 3.062,0 H 0"
                         style="fill:#24486d;fill-opacity:1;fill-rule:nonzero;stroke:none"
                         id="path136"
                         inkscape:connector-curvature="0" />
                    </g>
                    <g
                       id="g138"
                       transform="translate(143.26199,159.871)">
                      <path
                         d="M 0,0 -3.544,8.071 H -6.6 L -10.249,-4.21 h 3.061 l 2.423,8.114 3.516,-8.114 H 1.812 L 5.461,8.071 H 2.393 L 0,0"
                         style="fill:#24486d;fill-opacity:1;fill-rule:nonzero;stroke:none"
                         id="path140"
                         inkscape:connector-curvature="0" />
                    </g>
                    <g
                       id="g142"
                       transform="translate(114.77699,167.942)">
                      <path
                         d="m 0,0 h -11.195 l -0.749,-2.534 h 4.08 l -2.885,-9.744 h 3.062 l 2.885,9.744 h 4.048 L 0,0"
                         style="fill:#24486d;fill-opacity:1;fill-rule:nonzero;stroke:none"
                         id="path144"
                         inkscape:connector-curvature="0" />
                    </g>
                    <g
                       id="g146"
                       transform="translate(74.701004,167.942)">
                      <path
                         d="M 0,0 H -2.888 L -0.23,-12.285 H 2.81 L 10.982,0 H 7.836 L 1.906,-9.002 0,0"
                         style="fill:#24486d;fill-opacity:1;fill-rule:nonzero;stroke:none"
                         id="path148"
                         inkscape:connector-curvature="0" />
                    </g>
                    <g
                       id="g150"
                       transform="translate(129.78101,161.791)">
                      <path
                         d="m 0,0 c -0.5,-1.897 -2.188,-3.815 -4.489,-3.815 -2.436,0 -3.098,1.539 -2.503,3.831 C -6.399,2.3 -4.46,3.835 -2.499,3.835 -0.166,3.835 0.673,2.554 0,0 m -2.581,6.266 c -3.596,0 -6.402,-2.433 -7.388,-6.247 -0.972,-3.764 1.374,-6.265 5.436,-6.265 4.201,0 6.829,3.092 7.52,6.239 C 3.918,4.24 1.61,6.266 -2.581,6.266"
                         style="fill:#24486d;fill-opacity:1;fill-rule:nonzero;stroke:none"
                         id="path152"
                         inkscape:connector-curvature="0" />
                    </g>
                    <g
                       id="g154"
                       transform="translate(119.90601,170.58701)">
                      <path
                         d="m 0,0 -0.497,2.384 h -4.941 l 1.658,2.521 h 2.723 L -2.008,9.489 -8.26,0 h -3.128 l 8.435,12.679 H 0.138 L 2.882,0 H 0"
                         style="fill:#24486d;fill-opacity:1;fill-rule:nonzero;stroke:none"
                         id="path156"
                         inkscape:connector-curvature="0" />
                    </g>
                    <g
                       id="g158"
                       transform="translate(83.238007,170.58701)">
                      <path
                         d="m 0,0 -0.497,2.384 h -4.941 l 1.658,2.521 h 2.723 L -2.008,9.489 -8.26,0 h -3.128 l 8.435,12.679 H 0.138 L 2.882,0 H 0"
                         style="fill:#24486d;fill-opacity:1;fill-rule:nonzero;stroke:none"
                         id="path160"
                         inkscape:connector-curvature="0" />
                    </g>
                    <g
                       id="g162"
                       transform="translate(146.297,170.58701)">
                      <path
                         d="m 0,0 3.009,10.163 h -4.256 l 0.743,2.515 H 11.04 L 10.292,10.163 H 6.069 L 3.06,0 H 0"
                         style="fill:#24486d;fill-opacity:1;fill-rule:nonzero;stroke:none"
                         id="path164"
                         inkscape:connector-curvature="0" />
                    </g>
                    <g
                       id="g166"
                       transform="translate(102.907,170.386)">
                      <path
                         d="m 0,0 c -1.039,0 -1.967,0.218 -2.758,0.649 -0.8,0.435 -1.327,1.059 -1.568,1.855 l -0.018,0.06 2.378,1.24 0.027,-0.064 c 0.158,-0.38 0.459,-0.717 0.894,-1.002 0.437,-0.286 0.94,-0.432 1.493,-0.432 0.569,0 1.073,0.13 1.498,0.387 C 2.37,2.948 2.62,3.276 2.708,3.695 2.785,4.06 2.67,4.34 2.357,4.553 2.025,4.779 1.464,5.042 0.691,5.333 -0.113,5.64 -0.775,5.934 -1.276,6.209 c -0.51,0.279 -0.919,0.689 -1.216,1.216 -0.3,0.533 -0.364,1.219 -0.191,2.041 0.155,0.738 0.512,1.392 1.062,1.942 0.545,0.546 1.217,0.966 1.998,1.249 0.779,0.281 1.602,0.424 2.446,0.424 1.107,0 2.042,-0.205 2.777,-0.61 0.742,-0.411 1.234,-1.022 1.462,-1.818 L 7.079,10.593 4.7,9.353 4.674,9.419 c -0.147,0.366 -0.424,0.687 -0.822,0.953 -0.4,0.267 -0.876,0.403 -1.416,0.403 -0.54,0 -1.015,-0.127 -1.412,-0.376 C 0.629,10.15 0.396,9.837 0.313,9.443 0.256,9.172 0.306,8.943 0.467,8.744 0.634,8.536 0.864,8.362 1.149,8.226 1.44,8.086 1.871,7.906 2.43,7.69 3.212,7.41 3.856,7.131 4.345,6.863 4.842,6.59 5.241,6.197 5.529,5.695 5.821,5.187 5.888,4.546 5.728,3.788 5.483,2.624 4.831,1.691 3.79,1.014 2.755,0.341 1.48,0 0,0"
                         style="fill:#24486d;fill-opacity:1;fill-rule:nonzero;stroke:none"
                         id="path168"
                         inkscape:connector-curvature="0" />
                    </g>
                    <g
                       id="g170"
                       transform="translate(91.511002,170.386)">
                      <path
                         d="m 0,0 c -1.039,0 -1.967,0.218 -2.758,0.649 -0.8,0.435 -1.328,1.059 -1.568,1.855 l -0.019,0.06 2.379,1.24 0.027,-0.064 c 0.158,-0.38 0.459,-0.717 0.893,-1.002 0.438,-0.286 0.94,-0.432 1.494,-0.432 0.569,0 1.073,0.13 1.498,0.387 C 2.37,2.948 2.619,3.276 2.708,3.695 2.784,4.06 2.67,4.34 2.357,4.553 2.025,4.779 1.464,5.041 0.691,5.333 -0.114,5.64 -0.776,5.935 -1.276,6.209 c -0.51,0.279 -0.919,0.688 -1.216,1.216 -0.3,0.533 -0.365,1.219 -0.191,2.041 0.155,0.739 0.512,1.392 1.062,1.942 0.545,0.546 1.217,0.966 1.998,1.249 0.779,0.281 1.602,0.424 2.445,0.424 1.108,0 2.042,-0.205 2.777,-0.61 0.743,-0.41 1.235,-1.022 1.463,-1.818 L 7.079,10.593 4.7,9.353 4.674,9.419 C 4.527,9.785 4.25,10.106 3.852,10.372 3.452,10.639 2.976,10.775 2.436,10.775 1.896,10.775 1.42,10.648 1.024,10.399 0.628,10.15 0.396,9.837 0.313,9.443 0.256,9.172 0.306,8.943 0.467,8.744 0.634,8.536 0.864,8.362 1.149,8.226 1.44,8.086 1.871,7.906 2.43,7.69 3.212,7.41 3.855,7.131 4.345,6.863 4.842,6.59 5.241,6.197 5.529,5.695 5.821,5.187 5.888,4.546 5.728,3.788 5.483,2.624 4.831,1.691 3.79,1.014 2.755,0.341 1.48,0 0,0"
                         style="fill:#24486d;fill-opacity:1;fill-rule:nonzero;stroke:none"
                         id="path172"
                         inkscape:connector-curvature="0" />
                    </g>
                    <g
                       id="g174"
                       transform="translate(70.177002,176.927)">
                      <path
                         d="M 0,0 C -0.492,-1.893 -2.182,-3.804 -4.476,-3.804 H -6.8 l 2.261,7.618 h 2.092 C -0.112,3.814 0.682,2.625 0,0 m -1.531,6.341 h -5.318 l -3.764,-12.683 c 0,0 5.829,0 5.829,0 5.83,0 7.314,4.547 7.751,6.341 C 3.542,2.36 3.009,3.885 2.231,4.831 1.483,5.74 0.462,6.341 -1.531,6.341"
                         style="fill:#24486d;fill-opacity:1;fill-rule:nonzero;stroke:none"
                         id="path176"
                         inkscape:connector-curvature="0" />
                    </g>
                    <g
                       id="g178"
                       transform="translate(142.411,183.26601)">
                      <path
                         d="m 0,0 h -3.052 l -3.771,-12.68 h 8.199 l 0.744,2.521 H -3.01 L 0,0"
                         style="fill:#24486d;fill-opacity:1;fill-rule:nonzero;stroke:none"
                         id="path180"
                         inkscape:connector-curvature="0" />
                    </g>
                    <g
                       id="g182"
                       transform="translate(131.795,175.477)">
                      <path
                         d="m 0,0 c -0.22,-0.828 -0.541,-1.413 -1.012,-1.841 -0.497,-0.453 -1.163,-0.682 -1.981,-0.682 -0.788,0 -1.315,0.219 -1.567,0.65 -0.255,0.437 -0.289,1.042 -0.101,1.801 l 2.357,7.866 H -5.363 L -7.692,0.038 c -0.445,-1.677 -0.269,-2.955 0.52,-3.8 0.779,-0.833 1.987,-1.256 3.59,-1.256 1.578,0 2.992,0.416 4.201,1.238 1.126,0.763 1.898,1.954 2.429,3.746 L 5.373,7.794 H 2.316 L 0,0"
                         style="fill:#24486d;fill-opacity:1;fill-rule:nonzero;stroke:none"
                         id="path184"
                         inkscape:connector-curvature="0" />
                    </g>
                    <g
                       id="g186"
                       transform="translate(55.173004,189.879)">
                      <path
                         d="m 0,0 c -10.047,-16.472 -21.157,-25.002 -21.157,-25.002 3.036,-2.009 4.21,-4.553 4.21,-4.553 l 1.476,1.154 c -0.359,0.674 -1.321,2.17 -2.857,3.4 2.989,2.66 9.422,8.919 16.004,18.389 -0.621,-5.291 -0.849,-12.419 0.23,-18.07 -2.534,-0.963 -9.058,-4.486 -11.423,-9.54 h 2.256 c 3.663,6.398 11.097,8.395 11.097,8.395 C -2.443,-12.523 0,0 0,0"
                         style="fill:#24486d;fill-opacity:1;fill-rule:nonzero;stroke:none"
                         id="path188"
                         inkscape:connector-curvature="0" />
                    </g>
                    <g
                       id="g190"
                       transform="translate(46.927994,170.71001)">
                      <path
                         d="M 0,0 C 0.324,0.308 1.212,0.426 1.67,-0.002 2.181,-0.479 2.053,-1.028 1.704,-1.425 1.196,-2.004 -0.695,-3.35 -1.191,-3.656 h -0.333 c -0.121,0.16 -0.836,1.288 -0.983,1.817 -0.157,0.562 -0.129,1.27 0.496,1.777 C -1.381,0.453 -0.669,0.428 0,0"
                         style="fill:#24486d;fill-opacity:1;fill-rule:evenodd;stroke:none"
                         id="path192"
                         inkscape:connector-curvature="0" />
                    </g>
                    <g
                       id="g194"
                       transform="translate(50.029999,166.28999)">
                      <path
                         d="M 0,0 C 0.537,0.245 0.985,0.907 0.746,1.558 0.515,2.182 -0.203,2.191 -0.699,2.01 -1.617,1.676 -3.526,0.465 -3.847,0.228 l -0.118,-0.313 c 0.216,-0.32 0.905,-1.144 1.367,-1.501 0.463,-0.357 1.139,-0.568 1.823,-0.185 C -0.068,-1.376 0.159,-0.635 0,0"
                         style="fill:#24486d;fill-opacity:1;fill-rule:evenodd;stroke:none"
                         id="path196"
                         inkscape:connector-curvature="0" />
                    </g>
                    <g
                       id="g198"
                       transform="translate(44.022003,162.061)">
                      <path
                         d="m 0,0 c -0.326,-0.305 -1.218,-0.423 -1.679,0.002 -0.514,0.475 -0.385,1.02 -0.034,1.414 0.51,0.576 2.411,1.913 2.91,2.217 H 1.532 C 1.653,3.474 2.373,2.353 2.521,1.828 2.678,1.269 2.651,0.566 2.022,0.062 1.388,-0.45 0.673,-0.425 0,0"
                         style="fill:#24486d;fill-opacity:1;fill-rule:evenodd;stroke:none"
                         id="path200"
                         inkscape:connector-curvature="0" />
                    </g>
                    <g
                       id="g202"
                       transform="translate(40.934998,166.48399)">
                      <path
                         d="m 0,0 c -0.537,-0.245 -0.986,-0.907 -0.746,-1.558 0.231,-0.625 0.949,-0.633 1.446,-0.452 0.917,0.334 2.825,1.545 3.147,1.782 L 3.965,0.085 C 3.749,0.405 3.06,1.23 2.598,1.586 2.135,1.943 1.459,2.153 0.776,1.771 0.068,1.376 -0.159,0.635 0,0"
                         style="fill:#24486d;fill-opacity:1;fill-rule:evenodd;stroke:none"
                         id="path204"
                         inkscape:connector-curvature="0" />
                    </g>
                  </g>
                </g>
              </g>
            </g>
          </g>
        </g>
      </g>
    </g>
  </g>
</svg>
