<?xml version="1.0" encoding="UTF-8" standalone="no"?>
<!-- Created with Inkscape (http://www.inkscape.org/) -->

<svg
   xmlns:dc="http://purl.org/dc/elements/1.1/"
   xmlns:cc="http://creativecommons.org/ns#"
   xmlns:rdf="http://www.w3.org/1999/02/22-rdf-syntax-ns#"
   xmlns:svg="http://www.w3.org/2000/svg"
   xmlns="http://www.w3.org/2000/svg"
   xmlns:sodipodi="http://sodipodi.sourceforge.net/DTD/sodipodi-0.dtd"
   xmlns:inkscape="http://www.inkscape.org/namespaces/inkscape"
   width="107.94445"
   height="33.32357"
   viewBox="0 0 28.560302 8.8168608"
   version="1.1"
   id="svg9123"
   inkscape:version="0.92.0 r15299"
   sodipodi:docname="dassault.svg">
  <defs
     id="defs9117" />
  <sodipodi:namedview
     id="base"
     pagecolor="#ffffff"
     bordercolor="#666666"
     borderopacity="1.0"
     inkscape:pageopacity="0.0"
     inkscape:pageshadow="2"
     inkscape:zoom="7.4992205"
     inkscape:cx="53.472225"
     inkscape:cy="16.161793"
     inkscape:document-units="mm"
     inkscape:current-layer="layer1"
     showgrid="false"
     fit-margin-top="0"
     fit-margin-left="0"
     fit-margin-right="0"
     fit-margin-bottom="0"
     units="px"
     inkscape:window-width="1280"
     inkscape:window-height="744"
     inkscape:window-x="-4"
     inkscape:window-y="-4"
     inkscape:window-maximized="1" />
  <metadata
     id="metadata9120">
    <rdf:RDF>
      <cc:Work
         rdf:about="">
        <dc:format>image/svg+xml</dc:format>
        <dc:type
           rdf:resource="http://purl.org/dc/dcmitype/StillImage" />
        <dc:title></dc:title>
      </cc:Work>
    </rdf:RDF>
  </metadata>
  <g
     inkscape:label="Layer 1"
     inkscape:groupmode="layer"
     id="layer1"
     transform="translate(5.8323833,-343.10809)">
    <g
       id="g9179"
       transform="translate(0.13229161,-0.13229159)">
      <path
         inkscape:connector-curvature="0"
         d="m -1.8373899,343.37729 c 0.7366915,-0.0348 1.60839676,0.12212 1.77077367,0.64194 0.26619517,0.852 -1.08294857,2.09433 -2.25862567,2.70411 -0.2881492,0.14951 -0.462833,0.19054 -0.5355915,0.18032 -0.069513,-0.01 -0.080197,-0.0789 -0.057657,-0.12666 0.041924,-0.0895 0.2313937,-0.2721 0.4852823,-0.47045 1.3234033,-1.03366 1.75368852,-1.79194 1.5038573,-2.09934 -0.1602584,-0.19675 -0.8311787,-0.33353 -1.5277946,-0.33353 -0.1891541,0 -0.6861122,0.0439 -0.7371424,-0.13119 -0.041608,-0.14347 0.62548,-0.33063 1.3568976,-0.3652"
         id="Fill-1"
         style="fill:#005386;fill-rule:evenodd;stroke:none;stroke-width:0.26458332" />
      <path
         inkscape:connector-curvature="0"
         d="m -3.3957482,347.28377 c 0.631657,-0.0369 1.3989847,0.0734 1.8299496,0.40319 0.2142731,0.16374 0.3649668,0.46526 0.2777133,0.8109 -0.2487374,0.98101 -1.1771767,2.1678 -3.2401899,3.07979 -0.6559819,0.29001 -1.1717817,0.40096 -1.2800578,0.32317 -0.1163689,-0.0837 0.2219474,-0.73098 0.3237586,-0.94588 0.3293862,-0.69584 0.7408168,-1.37341 1.141922,-1.99369 0.1478099,-0.2283 0.3758036,-0.62417 0.5823561,-0.59251 0.1848786,0.0284 -0.031674,0.44917 -0.1741347,0.71675 -0.2393423,0.44891 -0.89858,1.69611 -0.6810976,1.77058 0.4807775,0.16493 2.736483,-1.55116 2.4038874,-2.5069 -0.1541819,-0.44356 -1.1335968,-0.48581 -1.750417,-0.48581 -0.2805504,0 -0.8933242,0.0663 -0.9272303,-0.14853 -0.036604,-0.19824 0.9309512,-0.39779 1.4935403,-0.43106"
         id="Fill-3"
         style="fill:#005386;fill-rule:evenodd;stroke:none;stroke-width:0.26458332" />
      <path
         inkscape:connector-curvature="0"
         d="m 1.4828824,346.23287 c 0.3791456,0.0685 0.6881728,0.12152 0.7591677,0.28159 0.079621,0.1814 -0.3332922,0.19237 -0.5413862,0.19666 -0.99743101,0.0193 -1.59887893,0.0389 -1.6289557,0.37785 -0.03916495,0.43629 0.42624454,0.87545 0.88579535,1.49135 0.41987865,0.56216 0.89718965,1.11682 0.75958275,1.63422 -0.1714667,0.64438 -0.96149555,0.78071 -1.71369722,0.78081 -0.72055645,6.6e-4 -1.40319388,-0.11494 -1.68989398,-0.1719 -0.3571878,-0.0705 -0.3041378,-0.24699 -0.2087862,-0.30374 0.1061461,-0.0634 0.7134985,-0.0649 1.13554539,-0.09 0.34731536,-0.0205 1.3560483,-0.0199 1.51326081,-0.27832 0.19291723,-0.31625 -0.27931957,-0.85774 -0.71285285,-1.42475 -0.54106312,-0.70752 -1.13531465,-1.43786 -0.82084385,-1.97128 0.40700827,-0.69017 1.59758722,-0.64286 2.263064,-0.5225"
         id="Fill-5"
         style="fill:#005386;fill-rule:evenodd;stroke:none;stroke-width:0.26458332" />
      <path
         inkscape:connector-curvature="0"
         d="m 17.029017,348.16756 c 0.801039,0 1.109732,-0.27413 1.236447,-0.90745 l 0.189886,-0.98653 c 0.0127,-0.066 -0.02679,-0.086 -0.07699,-0.086 h -0.387355 l -0.106433,0.56763 -0.06094,0.3021 -0.0508,0.26253 c -0.07094,0.35747 -0.302274,0.51857 -0.694653,0.51857 -0.431639,0 -0.547143,-0.15713 -0.479599,-0.51857 0,0 0.01665,-0.0903 0.02233,-0.11741 l 0.08931,-0.44722 0.106712,-0.56763 h -0.387588 c -0.05015,0 -0.09736,0.02 -0.110154,0.086 l -0.190398,0.98653 c -0.130018,0.69572 0.216122,0.90745 0.900215,0.90745 z m -13.6066327,1.07002 c -0.057961,0.27245 0.1552303,0.40415 0.5883588,0.67299 0.4733663,0.29376 0.58166,0.31618 0.5380728,0.47107 -0.034935,0.12473 -0.1591379,0.12992 -0.3723762,0.12992 H 3.3328372 c -0.09578,0 -0.1514623,0.0394 -0.1681157,0.12504 l -0.033865,0.17284 h 1.0635858 c 0.4869032,0 0.7919678,-0.0302 0.9027734,-0.32757 0.053775,-0.14513 0.053216,-0.29508 -0.07815,-0.44331 -0.066893,-0.0755 -0.1656503,-0.14166 -0.3018549,-0.2185 -0.6079892,-0.34359 -0.7667085,-0.38335 -0.7282847,-0.54983 0.021725,-0.0936 0.086384,-0.097 0.3150196,-0.097 h 0.7130732 c 0.096199,0 0.1518809,-0.0394 0.1685343,-0.12499 l 0.035121,-0.18051 H 4.318273 c -0.5110924,0 -0.8180644,0.003 -0.8958887,0.36987 z m 4.6904955,0 c -0.057682,0.27245 0.1554628,0.40415 0.588219,0.67299 0.4739711,0.29376 0.5821254,0.31618 0.5382125,0.47107 -0.035075,0.12473 -0.1592307,0.12992 -0.3723759,0.12992 h -0.84337 c -0.095874,0 -0.1516485,0.0394 -0.1683019,0.12504 l -0.033493,0.17284 h 1.0634926 c 0.4868567,0 0.7917818,-0.0302 0.9023549,-0.32757 0.054426,-0.14513 0.053775,-0.29508 -0.077592,-0.44331 -0.067311,-0.0755 -0.1657898,-0.14166 -0.3024129,-0.2185 -0.6077104,-0.34359 -0.76629,-0.38335 -0.7279592,-0.54983 0.021444,-0.0936 0.086151,-0.097 0.3149263,-0.097 h 0.7134921 c 0.095687,0 0.1515555,-0.0394 0.1680226,-0.12499 l 0.0354,-0.18051 H 9.0089545 c -0.5111853,0 -0.817971,0.003 -0.8960747,0.36987 z m 11.8873302,0 c -0.05759,0.27245 0.155556,0.40415 0.587894,0.67299 0.474017,0.29376 0.582311,0.31618 0.538212,0.47107 -0.03466,0.12473 -0.158858,0.12992 -0.371864,0.12992 h -0.843649 c -0.09592,0 -0.151602,0.0394 -0.168302,0.12504 l -0.03349,0.17284 h 1.06368 c 0.486529,0 0.791501,-0.0302 0.902308,-0.32757 0.05414,-0.14513 0.05349,-0.29508 -0.07796,-0.44331 -0.06689,-0.0755 -0.16579,-0.14166 -0.302228,-0.2185 -0.607571,-0.34359 -0.766568,-0.38335 -0.727865,-0.54983 0.02117,-0.0936 0.08638,-0.097 0.315065,-0.097 h 0.713354 c 0.09569,0 0.151323,-0.0394 0.168023,-0.12499 l 0.03535,-0.18051 h -0.902309 c -0.511279,0 -0.818111,0.003 -0.896215,0.36987 z m -7.01909,-1.44091 c 0.05387,-0.14528 0.0534,-0.29539 -0.07815,-0.44331 -0.06699,-0.0756 -0.165557,-0.14161 -0.302227,-0.21905 -0.607757,-0.34359 -0.766383,-0.38285 -0.728192,-0.54938 0.02163,-0.0933 0.08657,-0.0972 0.315485,-0.0972 h 0.712887 c 0.09611,0 0.151835,-0.0393 0.168581,-0.12463 l 0.03498,-0.18143 h -0.902448 c -0.511185,0 -0.817971,0.003 -0.896307,0.37053 -0.05745,0.27215 0.155742,0.4042 0.588451,0.6731 0.473646,0.2937 0.581707,0.31602 0.538445,0.47127 -0.03531,0.12473 -0.159324,0.12966 -0.372283,0.12966 h -0.843463 c -0.09611,0 -0.151927,0.0394 -0.168581,0.12499 l -0.03335,0.17319 h 1.063446 c 0.486578,0 0.792015,-0.0301 0.902727,-0.32777 z m -2.266074,0 c 0.05378,-0.14528 0.05331,-0.29539 -0.07782,-0.44331 -0.06726,-0.0756 -0.165975,-0.14161 -0.302366,-0.21905 -0.6081288,-0.34359 -0.7665224,-0.38285 -0.7280054,-0.54938 0.021352,-0.0933 0.085918,-0.0972 0.3152518,-0.0972 h 0.7127016 c 0.09615,0 0.151927,-0.0393 0.168301,-0.12463 l 0.03563,-0.18143 H 9.9360103 c -0.5111856,0 -0.8179247,0.003 -0.8958887,0.37053 -0.057868,0.27215 0.1555094,0.4042 0.5880796,0.6731 0.4735528,0.2937 0.5818928,0.31602 0.5383988,0.47127 -0.03475,0.12473 -0.159138,0.12966 -0.3726088,0.12966 H 8.9510398 c -0.096246,0 -0.1517414,0.0394 -0.1687671,0.12499 l -0.033493,0.17319 h 1.0637718 c 0.4867175,0 0.7916885,-0.0301 0.9024945,-0.32777 z m 9.892457,-1.60908 c -0.09606,0 -0.150208,0.0328 -0.164535,0.10521 l -0.0381,0.19547 h 0.762662 l -0.317903,1.63617 h 0.341998 c 0.09615,0 0.152162,-0.0394 0.171141,-0.1378 l 0.291621,-1.49837 H 22.2908 c 0.09029,0 0.121875,-0.0398 0.137506,-0.11869 l 0.03503,-0.18199 z m -16.6165767,0.5385 c -0.04796,0 -0.084197,0.0327 -0.090524,0.0656 l -0.2594305,1.33271 h 1.1473645 c 0.6425523,0 1.0879148,-0.23868 1.2269571,-0.98083 0.1036418,-0.55238 -0.135786,-0.95602 -0.7904327,-0.95602 H 3.837324 c 0,0 -0.00298,0.0137 -0.00572,0.0251 -0.031307,0.13028 -0.014841,0.27408 0.2044927,0.27408 h 1.0086018 c 0.4852286,0 0.5545867,0.24265 0.4575968,0.66999 -0.095222,0.41956 -0.2612445,0.63557 -0.62548,0.66862 H 4.1859295 l 0.2133777,-1.09931 z m 16.3448177,1.21707 c 0.01647,-0.0848 -0.0133,-0.11776 -0.09108,-0.11776 h -1.039118 l 0.305856,-1.57221 c 0.0061,-0.0328 -0.01763,-0.0656 -0.05936,-0.0656 h -0.414521 l -0.37647,1.93685 h 1.639245 z m -3.094,0.92994 h -0.438758 l -0.849417,0.7548 -0.555749,-0.7548 h -0.438432 c -0.07196,0 -0.11155,0.0457 -0.126482,0.12458 l -0.352374,1.81176 h 0.372423 c 0.07815,0 0.121737,-0.0392 0.135739,-0.11147 l 0.263897,-1.35599 0.428011,0.61054 c 0.01261,0.026 0.04842,0.059 0.1022,0.059 h 0.19263 c 0.05405,0 0.102201,-0.033 0.125366,-0.059 l 0.66516,-0.61054 -0.263896,1.35599 c -0.01396,0.0723 0.01438,0.11147 0.0928,0.11147 h 0.372051 l 0.352792,-1.81176 c 0.01489,-0.0789 -0.0058,-0.12458 -0.07796,-0.12458 z m -4.640536,0.12458 -0.352094,1.81176 h 1.789498 l 0.03768,-0.19364 c 0.01563,-0.0791 -0.0037,-0.10531 -0.09383,-0.10531 h -1.188766 l 0.100945,-0.51968 h 1.050886 c 0.03014,0 0.05177,-0.0195 0.05712,-0.0461 l 0.0401,-0.20614 c 0.0049,-0.026 -0.0093,-0.046 -0.03912,-0.046 h -1.051212 l 0.101083,-0.51886 h 1.147132 c 0.05405,0 0.107829,0 0.122389,-0.0723 l 0.04391,-0.22836 h -1.615382 c -0.08401,0 -0.133832,0.0389 -0.150346,0.12458 z m 5.313696,0 -0.352233,1.81176 h 1.790056 l 0.03721,-0.19364 c 0.01549,-0.0791 -0.0035,-0.10531 -0.09341,-0.10531 h -1.189092 l 0.101084,-0.51968 h 1.050793 c 0.03014,0 0.05205,-0.0195 0.0568,-0.0461 l 0.04038,-0.20614 c 0.0051,-0.026 -0.0096,-0.046 -0.03908,-0.046 h -1.051073 l 0.100758,-0.51886 h 1.147225 c 0.05429,0 0.107969,0 0.121924,-0.0723 l 0.04442,-0.22836 H 18.06539 c -0.08424,0 -0.133506,0.0389 -0.150486,0.12458 z m -10.7332202,-0.0593 -0.1718371,0.88167 c -0.3000872,0.0922 -1.0776807,0.26081 -0.956269,-0.36276 l 0.1136899,-0.5842 H 5.758561 c -0.048146,0 -0.084523,0.0323 -0.090943,0.0653 l -0.1031301,0.53193 c -0.1966315,1.01109 0.7610332,0.87298 1.3808379,0.68291 l -0.1276451,0.65621 H 7.159681 c 0.096292,0 0.1519275,-0.0392 0.171372,-0.1375 l 0.34921,-1.79884 H 7.2661605 c -0.041959,0 -0.078383,0.0323 -0.084477,0.0653 z m 5.1123662,0.11634 0.03568,-0.18153 h -1.855647 c -0.09611,0 -0.150578,0.0325 -0.164673,0.10475 l -0.03819,0.19526 h 0.762521 l -0.317717,1.63623 h 0.342139 c 0.09592,0 0.151416,-0.0392 0.171233,-0.1375 l 0.291109,-1.49873 h 0.636598 c 0.09006,0 0.121737,-0.0394 0.136947,-0.11848 z m -5.3368617,-2.05304 c 0.072708,-0.3773 0.2927373,-0.51393 0.6853486,-0.51393 0.4148471,0 0.5236525,0.15565 0.4561549,0.51393 0,0 -0.017026,0.0895 -0.022841,0.1165 -0.00809,0.0401 -0.026515,0.1442 -0.1340646,0.1442 H 6.906669 l 0.050518,-0.2607 z m -0.5844511,1.12275 h 0.3661891 l 0.1066655,-0.56315 h 1.1410383 l -0.1064794,0.56315 h 0.3663286 c 0.048192,0 0.093966,-0.0198 0.1065726,-0.0855 l 0.1905373,-0.97798 c 0.1396933,-0.74194 -0.2792471,-0.89952 -0.8439748,-0.89952 -0.6766031,0 -1.062795,0.16983 -1.2102568,0.89952 l -0.1902119,0.97798 c -0.012652,0.0657 0.025352,0.0855 0.073592,0.0855 z m 7.7015538,-1.12275 c 0.07294,-0.3773 0.292645,-0.51393 0.685256,-0.51393 0.415033,0 0.523559,0.15565 0.456294,0.51393 0,0 -0.01688,0.0895 -0.02298,0.1165 -0.0081,0.0401 -0.02651,0.1442 -0.133878,0.1442 h -1.035396 l 0.0507,-0.2607 z m -0.584451,1.12275 h 0.366282 l 0.106852,-0.56315 h 1.140759 l -0.106619,0.56315 h 0.366515 c 0.0481,0 0.09401,-0.0198 0.106665,-0.0855 l 0.190119,-0.97798 c 0.140298,-0.74194 -0.278828,-0.89952 -0.843602,-0.89952 -0.67679,0 -1.062982,0.16983 -1.210536,0.89952 l -0.190119,0.97798 c -0.01247,0.0657 0.02526,0.0855 0.07368,0.0855 z"
         id="Fill-6"
         style="fill:#005386;fill-rule:evenodd;stroke:none;stroke-width:0.26458332" />
    </g>
  </g>
</svg>
