<svg version="1.1" xmlns="http://www.w3.org/2000/svg" xmlns:xlink="http://www.w3.org/1999/xlink" x="0px" y="0px" width="348.8px" height="161.7px" viewBox="0 0 348.8 161.7" style="overflow:scroll;enable-background:new 0 0 348.8 161.7;" xml:space="preserve">
    <style type="text/css">
        .st0{fill:#286A94;}
        .st1{fill:#8ECEF4;}
        .st2{fill-rule:evenodd;clip-rule:evenodd;fill:#94C41F;}
        .st3{fill:#2D92D3;}
        .st4{fill:#94C41F;}
    </style>
    <defs>
    </defs>
    <g>
        <g>
            <path class="st0" d="M348.4,141.6c-0.5-0.6-7.3-8.1-16.2,0.5c-0.8,0.8-1.7,1.5-2.5,2.1c-5.5,4.6-13.2,4.7-19.5,0.2l0,0
                c-6.6-4.3-12.7-6.4-18.4-6.4c-5.6,0-10.9,2-16.3,6c-7.8,5.9-15.5,6.4-23.3,1.6c-0.2-0.1-0.5-0.3-0.7-0.4
                c-3.8-2.3-8.4-5.2-14.3-6.1c-6.9-1.1-13.7,0.8-20.8,5.9c-4.4,3.2-8.1,4.5-11.2,4.7c-3.1-0.2-6.8-1.6-11.2-4.7
                c-7.1-5.1-13.8-7-20.8-5.9c-5.8,0.9-10.5,3.8-14.3,6.1c-0.2,0.2-0.5,0.3-0.7,0.4c-7.9,4.8-15.5,4.3-23.3-1.6c-5.4-4-10.7-6-16.3-6
                c-5.7,0-11.8,2.1-18.4,6.4c-11.8,7.6-19.4,4.9-29.2-2.8c-5-3.9-10.9-4.8-17.6-2.5c-5.3,1.8-10.1,5-14.5,8.3
                c-6.4,4.7-14.2,4.6-19.8,0c-0.8-0.6-1.7-1.3-2.5-2.1c-8.9-8.5-15.7-1-16.2-0.5l0,0c4-0.2,8.7,2.4,11.6,6.8c2.4,3.6,5.1,6,6.9,7.3
                c2.6,1.6,5.5,2.6,8.6,2.8c0.4,0,0.8,0,1.2,0c4.3,0,8.6-1.5,12.4-4.3c5.8-4.3,18-13.4,27.5-5.9c6.2,4.9,10.9,7.3,15.6,8
                c5.7,0.9,11.3-0.7,17.9-4.9c11.6-7.5,21-7.7,30.4-0.6c5,3.7,10,5.6,15.1,5.6c4.1,0,8.3-1.3,12.4-3.8c0.2-0.1,0.5-0.3,0.7-0.5
                c3.5-2.1,7.8-4.8,12.9-5.6c6-0.9,11.9,0.8,18.1,5.2c6.3,4.5,12,6.2,17.4,5.2c3.8-0.7,6.7-2.6,9.2-4.4c0.1-0.1,0.1-0.1,0.2-0.2
                c0.1,0,0.1-0.1,0.2-0.1c6.2-4.4,11.9-6.7,17.9-5.7c5.1,0.8,9.4,3.5,12.9,5.6c0.3,0.2,0.5,0.3,0.7,0.5c4.1,2.5,8.3,3.8,12.4,3.8
                c5,0,10.1-1.9,15.1-5.6c9.3-7,18.6-6.9,29.9,0.3l0,0c3.7,2.8,8.1,4.3,12.4,4.3c0.4,0,0.8,0,1.2,0c3.1-0.2,6-1.1,8.6-2.8
                c1.8-1.4,4.5-3.8,6.9-7.3C339.7,144,344.4,141.5,348.4,141.6L348.4,141.6z"></path>
            <path class="st1" d="M17,140.2c2.6,1.5,5.5,2.4,8.6,2.6c0.4,0,0.8,0,1.2,0c4.3,0,8.6-1.4,12.4-4.1c5.8-4.1,18-12.6,27.5-5.5
                c6.2,4.6,10.9,6.9,15.6,7.6c5.7,0.8,11.3-0.6,17.9-4.6c11.6-7.1,21-7.2,30.4-0.5c5,3.5,10,5.3,15.1,5.3c4.1,0,8.3-1.2,12.4-3.6
                c0.2-0.1,0.5-0.3,0.7-0.4c3.5-2,7.8-4.5,12.9-5.3c6-0.9,11.9,0.7,18.1,4.9c6.3,4.3,12,5.9,17.4,5c3.8-0.7,6.7-2.5,9.2-4.2
                c0.1-0.1,0.1-0.1,0.2-0.2c0.1,0,0.1-0.1,0.2-0.1c6.2-4.2,11.9-6.3,17.9-5.4c5.1,0.8,9.4,3.3,12.9,5.3c0.3,0.1,0.5,0.3,0.7,0.4
                c4.1,2.4,8.3,3.6,12.4,3.6c5,0,10.1-1.8,15.1-5.3c9.3-6.6,18.6-6.5,29.9,0.3l0,0c3.7,2.6,8.1,4.1,12.4,4.1c0.4,0,0.8,0,1.2,0
                c3.1-0.2,6-1.1,8.6-2.6c6.3-4,11.9-5.6,17.1-3.5c0,0-4.7-9.1-16.7-3.9c-6.2,3.6-13.8,3.6-20.1-0.7l0,0c-6.6-4.1-12.7-6-18.4-6
                c-5.6,0-10.9,1.9-16.3,5.7c-7.8,5.5-15.5,6-23.3,1.5c-0.2-0.1-0.5-0.3-0.7-0.4c-3.8-2.2-8.4-4.9-14.3-5.8
                c-6.9-1-13.7,0.8-20.8,5.6c-4.4,3-8.1,4.2-11.2,4.4c-3.1-0.2-6.8-1.5-11.2-4.4c-7.1-4.8-13.8-6.6-20.8-5.6
                c-5.8,0.9-10.5,3.6-14.3,5.8c-0.2,0.1-0.5,0.3-0.7,0.4c-7.9,4.5-15.5,4.1-23.3-1.5c-5.4-3.8-10.7-5.7-16.3-5.7
                c-5.7,0-11.8,2-18.4,6c-11.8,7.2-19.4,4.6-29.2-2.7c-5-3.7-11.1-4.9-17.6-2.4c-7.6,2.9-11.4,8.3-16.9,12.1
                C29.2,139.9,22.3,139.6,17,140.2z"></path>
        </g>
        <path class="st2" d="M280,33.5c25.7,24.1,42.9-27.8,68.7,3C313.9-12.1,303,40.5,280,33.5z"></path>
        <circle class="st3" cx="267.4" cy="67.5" r="3.5"></circle>
        <g>
            <path class="st0" d="M269.9,103.8h-5V74.4h5V103.8z M84.6,64.8h-5v7.4c-2.9-5.5-9.1-8.2-15.2-8.2c-5.4,0-10.9,1.9-16.8,8.2
                c-1.4,1.3-4.1,6.6-4.1,11.8c0,5.9,2.4,10.8,3.8,12.4c5,5.7,11.3,8.2,17.1,8.2c6.1,0,12.1-2.8,15.1-8.2v7.3h5V64.8z M64.3,69
                c8.7,0,15.2,6.9,15.2,15.5c0,8.1-7,15.1-15.1,15.1c-8.3,0-15.7-6.6-15.7-15.1C48.8,75.9,55.8,69,64.3,69z M114.5,99.1v4.8h-22V64
                h5.1v35.1H114.5z M239.1,64c-11.4,0-20.4,9.2-20.4,20.5c0,11.2,9.4,20.1,20.4,20.1c11.2,0,20.2-9.5,20.2-20.6
                C259.3,73.2,249.9,64,239.1,64z M239.1,69c3.8,0,7.6,1.6,10.4,4.3c3.1,3,4.6,6.5,4.6,10.7c0,8.5-6.3,15.6-14.9,15.6
                c-8.3,0-15.1-6.8-15.1-15.1C224,76.1,230.5,69,239.1,69z M303.8,103.9h-6.4l-14-18.7l3.7,0c2.4,0,4.8-0.1,6.9-1
                c2.9-1.3,4.6-4,4.6-7.3c0-2.5-1.3-5-3.3-6.4c-2.4-1.7-5.4-1.7-8.4-1.7h-5.5v35.1h-5.1V64.1h9.8c3.5,0,7.8,0,11.3,2
                c4,2.3,6.3,6.4,6.3,11.2c0,6.2-4.8,11.4-10.8,12.1L303.8,103.9z M348.8,86.2c-0.1-5.6-0.9-10.2-4.6-14.6
                c-3.9-4.8-9.5-7.5-15.6-7.5c-11.3,0-20.3,9-20.3,20.3c0,11.4,9,20.3,20.4,20.3c8.2,0,16.2-5.8,18.9-13.6h-5.5
                c-2.3,5.3-8.2,8.5-13.9,8.5c-7.2,0-14.4-6-14.6-13.4H348.8z M313.6,81.4c1.3-7.2,7.8-12.4,15.1-12.4c7.2,0,13.5,5.5,14.9,12.4
                H313.6z M97.1,29.4c-0.1-5.6-0.9-10.2-4.6-14.6C88.7,10,83.1,7.2,77,7.2c-11.3,0-20.3,9-20.3,20.3c0,11.4,9,20.3,20.4,20.3
                c8.2,0,16.2-5.8,18.9-13.6h-5.5c-2.3,5.3-8.2,8.5-13.9,8.5c-7.2,0-14.4-6-14.6-13.4H97.1z M61.9,24.6c1.3-7.2,7.8-12.4,15.1-12.4
                c7.2,0,13.5,5.5,14.9,12.4H61.9z M106.2,47h5.3V26.5c0.1-3.3,0-6.7,2.1-9.5c2.1-3,5.9-4.8,9.5-4.8c4,0,7.7,1.7,10,5
                c2,2.8,2.3,5.9,2.3,9.2V47h5.3V26.5c0-4.9-0.6-9-3.6-12.8c-3.5-4.2-8.6-6.5-13.8-6.5c-5.1,0-9.1,2.3-12.1,6.5V8.1h-5V47z
                    M151.3,47h5.3V26.5c0.1-3.3,0-6.7,2.1-9.5c2.1-3,5.9-4.8,9.5-4.8c4,0,7.7,1.7,10,5c2,2.8,2.3,5.9,2.3,9.2V47h5.3V26.5
                c0-4.9-0.6-9-3.6-12.8c-3.5-4.2-8.6-6.5-13.8-6.5c-5.1,0-9.1,2.3-12.1,6.5V8.1h-5V47z M235.4,29.4c-0.1-5.6-0.9-10.2-4.6-14.6
                c-3.9-4.8-9.5-7.5-15.6-7.5c-11.3,0-20.3,9-20.3,20.3c0,11.4,9,20.3,20.4,20.3c8.2,0,16.2-5.8,18.9-13.6h-5.5
                c-2.3,5.3-8.2,8.5-13.9,8.5c-7.2,0-14.4-6-14.6-13.4H235.4z M200.2,24.6c1.3-7.2,7.8-12.4,15.1-12.4c7.2,0,13.5,5.5,14.9,12.4
                H200.2z M242.4,35.3c-0.4,6.6,6.8,12.4,14,12.4c7.9,0,13.8-5,13.8-12.4c0-7-5.5-9.5-11.9-11.4c-3.7-1.1-8.6-2.2-8.6-6.5
                c0-3,3.7-5.4,7-5.4c3.7,0,6.6,2.1,6.6,5.5h5.8c0-5.7-5.4-10.5-11.7-10.5c-6.7,0-13.4,4.6-13.4,10.9c0,2.8,1.2,5.5,3.4,7.4
                c2.1,1.8,6.1,2.6,8.8,3.4c4.2,1.1,8.2,2.8,8.2,7.5c0,3.8-3.3,6.5-7.5,6.5c-4.4,0-8.9-3.3-8.8-7.3H242.4z"></path>
            <path class="st4" d="M17,24.3h32.6l-0.1,1.4C48.6,38.2,37.8,48,24.9,48C11.2,48,0.1,37.1,0.1,23.8c0-6,2.7-12.3,7.2-16.7
                C11.9,2.5,18,0,24.9,0c5,0,9.7,1.4,13.6,4c3.2,2.1,7,5.7,8.2,9.4l0.6,1.8h-7.6l-0.4-0.7c-2.7-4.5-8.5-7.5-14.4-7.5
                c-4.6,0-8.9,1.6-12.1,4.6c-3.5,3.2-5.6,7.9-5.6,12.3c0,9.7,7.9,17.3,17.9,17.3c6.9,0,13.3-4.1,15.8-10.1H17V24.3z M23.5,94.1
                L8,56.9l-0.1-0.3H0l19.9,47.2H27L47,56.6h-7.8L23.5,94.1z M199.3,97.6v-41h-6.6v47.2h25.2v-6.2H199.3z"></path>
            <path class="st3" d="M152.3,103.7h-3.5v-5c-2.7,3.8-6.3,5.6-11,5.6c-3.9,0-7.6-1.6-11.4-5.6c-1.3-1.1-3-4.7-3-8.7
                c0-8.1,6.7-14.1,14.6-14.1c4.1,0,8.3,1.8,10.5,5.3V67h3.7V103.7z M137.8,79.5c-5.8,0-10.7,4.7-10.7,10.5c0,6,4.8,10.8,10.8,10.8
                c6,0,10.8-4.9,10.8-10.8C148.7,84,143.8,79.5,137.8,79.5z M160.2,91.5c0.2,5.2,5.2,9.4,10.2,9.4c4,0,8.1-2.2,9.8-6h3.8
                c-1.9,5.5-7.5,9.5-13.2,9.5c-8,0-14.3-6.3-14.3-14.2c0-7.9,6.3-14.2,14.2-14.2c4.3,0,8.2,1.9,10.9,5.3c2.5,3.1,3.1,6.3,3.2,10.2
                H160.2z M181.2,88.1c-0.9-4.8-5.4-8.7-10.4-8.7c-5.1,0-9.7,3.6-10.5,8.7H181.2z"></path>
        </g>
    </g>
</svg>