<?xml version="1.0" encoding="utf-8"?>
<!-- Generator: Adobe Illustrator 25.2.3, SVG Export Plug-In . SVG Version: 6.00 Build 0)  -->
<svg version="1.1" id="Layer_1" xmlns="http://www.w3.org/2000/svg" xmlns:xlink="http://www.w3.org/1999/xlink" x="0px" y="0px"
	 viewBox="0 0 285.6 74.4" style="enable-background:new 0 0 285.6 74.4;" xml:space="preserve">
<style type="text/css">
	.st0{fill:#17243E;}
	.st1{fill:#1D3D8F;}
	.st2{fill:#37AE6E;}
	.st3{fill:#808184;}
</style>
<g>
	<g id="Calque_2">
		<g id="Calque_1-2">
			<path class="st0" d="M106.6,30c-0.1-10.1,8.1-18.4,18.2-18.4c0.1,0,0.2,0,0.3,0c4.6,0,9.1,1.6,12.6,4.7l-3.5,3.9
				c-2.5-2.2-5.7-3.4-9.1-3.3c-7-0.2-12.8,5.3-13,12.3c0,0.2,0,0.5,0,0.7c-0.2,7,5.3,12.8,12.3,13c0.3,0,0.6,0,0.8,0
				c3.8,0,7.4-1.4,10.1-4l3.2,4.1c-3.7,3.4-8.5,5.3-13.5,5.2c-10.1,0.2-18.4-7.9-18.6-18C106.5,30.2,106.5,30.1,106.6,30L106.6,30z"
				/>
			<path class="st0" d="M175.2,43l2.2-4.5c3.1,3,7.2,4.7,11.5,4.6c4.9,0,8.8-2.2,8.8-5.4c0-3.7-4.3-4.7-8.6-5.8
				c-6.5-1.7-12.5-3.5-12.5-10.2c0-6.4,6.7-10.1,12.6-10.1c4.3-0.1,8.5,1.3,12,3.8l-2.2,4.5c-2.9-2-6.3-3.1-9.8-3c-3.6,0-7,2-7,4.8
				c0,3.5,3.9,4.3,8.1,5.1c6.4,1.5,13,3.8,13,10.8c0,7.5-7.6,10.8-14.5,10.8C183.9,48.5,178.9,46.6,175.2,43L175.2,43z"/>
			<path class="st0" d="M206.4,43l2.2-4.5c3.1,3,7.2,4.7,11.5,4.6c4.9,0,8.8-2.2,8.8-5.4c0-3.7-4.3-4.7-8.6-5.8
				C214,30.2,208,28.4,208,21.7c0-6.4,6.7-10.1,12.6-10.1c4.3-0.1,8.5,1.3,12,3.8l-2.2,4.5c-2.9-2-6.3-3.1-9.8-3c-3.6,0-7,2-7,4.8
				c0,3.5,3.9,4.3,8,5.1c6.4,1.5,13,3.8,13,10.8c0,7.5-7.6,10.8-14.5,10.8C215,48.5,210.1,46.6,206.4,43L206.4,43z"/>
			<path class="st0" d="M280.1,30c0-7.4-5.3-13-12-13c-7,0-12.3,5.5-12.3,13.1s5.2,13,12.3,13C274.9,43,280.1,37.5,280.1,30
				L280.1,30z M250.2,30c0-10.4,6.9-18.4,16.7-18.4c5.7,0,10.7,2.3,13.3,6.9v-6.2h5.5v35.3h-5.5v-6.2c-2.6,4.6-7.6,6.9-13.3,6.9
				C257.1,48.3,250.2,40.2,250.2,30L250.2,30z"/>
			<path class="st1" d="M96,15.4l-3.6,4.1c3.3,2.5,5.3,6.4,5.2,10.6c0.2,6.7-4.8,12.4-11.4,13l3.6-4.1l-3.2-2.8l-5.7,6.4l0,0
				l-3.8,4.3l0,0c2.4,1,5,1.6,7.6,1.6c10.1,0.1,18.4-8,18.5-18.1c0-0.1,0-0.2,0-0.3C103.3,24.3,100.6,18.9,96,15.4z"/>
			<path class="st2" d="M84.6,11.6c-10.1-0.1-18.4,8-18.5,18.1c0,0.1,0,0.2,0,0.3c0,5.8,2.7,11.2,7.3,14.6l3.6-4.1
				c-3.4-2.4-5.4-6.4-5.3-10.6c-0.2-6.7,4.8-12.3,11.4-13l-3.6,4.1l3.2,2.8l5.7-6.4l0,0l3.8-4.3l0,0C89.8,12.1,87.2,11.6,84.6,11.6
				L84.6,11.6z"/>
			<path class="st0" d="M24.3,25c0,4.4-3.9,7.9-9.3,7.9H5.3V17.1H15C20.4,17.1,24.3,20.4,24.3,25L24.3,25z M14.6,12.3H0v35.3h5.3
				v-10h9.2c9.1,0,15.2-5.2,15.2-12.7S23.6,12.3,14.6,12.3z"/>
			<path class="st0" d="M38.5,32.9V17.1h9.7c5.4,0,9.3,3.4,9.3,7.9s-3.9,7.9-9.3,7.9L38.5,32.9z M63,47.6l-8.5-11.1
				C59.7,34.6,63,30.4,63,25c0-7.6-6.1-12.7-15.2-12.7H33.2v35.3h5.3v-10h9.2c0.5,0,1,0,1.5-0.1l7.5,10L63,47.6z"/>
			<path class="st0" d="M156.7,16.5c6.1,0,11,4.6,11.7,10.9H145C145.9,21,150.8,16.5,156.7,16.5L156.7,16.5z M156.9,11.6
				c-10.1,0-17.8,8.2-17.8,18.4c0,11.2,8.5,18.3,18.5,18.3c4.8,0,9.5-1.6,13.3-4.6l0.2-0.1c0,0-2.7-3.5-2.9-3.7
				c-3,2.3-6.8,3.5-10.6,3.5c-6.5,0.1-12-4.8-12.7-11.2h28.7v-0.3c0-0.1,0.1-1.2,0.1-2.2C173.9,19.7,166.4,11.6,156.9,11.6
				L156.9,11.6z"/>
			<polygon class="st0" points="239.8,12.3 245.3,12.3 245.3,47.6 239.8,47.6 239.8,12.3 			"/>
			<path class="st0" d="M238.7,5.1c0-2.2,1.7-4,3.9-4c0,0,0,0,0,0c2.2,0,4,1.8,4,4c0,2.2-1.8,3.9-4,3.9c0,0,0,0,0,0
				C240.4,9,238.7,7.3,238.7,5.1C238.7,5.1,238.7,5.1,238.7,5.1z"/>
		</g>
	</g>
	<g>
		<path class="st3" d="M144.7,68.6c-0.9,0.9-1.9,1.6-3.7,1.6c-2,0-3.4-1.1-3.4-3.1c0-2.2,1.8-3.1,4.3-3.1c1,0,1.9,0.1,2.8,0.3v-1.9
			c0-1.7-1.1-2.3-2.6-2.3c-1.6,0-2.6,0.4-3.3,0.9h-0.4v-0.8c0.9-0.5,2.1-0.9,3.8-0.9c2.2,0,3.6,0.8,3.6,3v7.8h-0.3
			c-0.6,0-0.7-0.2-0.7-1V68.6z M144.7,67.6V65c-0.8-0.2-1.7-0.3-2.8-0.3c-1.9,0-3.3,0.7-3.3,2.3c0,1.7,1.1,2.4,2.5,2.4
			C142.9,69.4,143.8,68.6,144.7,67.6z"/>
		<path class="st3" d="M149.6,61.1c1.2-1,2.8-1.8,4.7-1.8c1.5,0,2.8,0.6,2.8,2.9v8h-1v-7.8c0-1.7-0.9-2.1-2.1-2.1
			c-1.6,0-3.1,0.9-4.3,1.8v8.2h-1V59.4h0.5c0.5,0,0.6,0.1,0.6,1.1V61.1z"/>
		<path class="st3" d="M171.1,68.6c-0.9,0.9-1.9,1.6-3.7,1.6c-2,0-3.4-1.1-3.4-3.1c0-2.2,1.8-3.1,4.3-3.1c1,0,1.9,0.1,2.8,0.3v-1.9
			c0-1.7-1.1-2.3-2.6-2.3c-1.6,0-2.6,0.4-3.3,0.9h-0.4v-0.8c0.9-0.5,2.1-0.9,3.8-0.9c2.2,0,3.6,0.8,3.6,3v7.8h-0.3
			c-0.6,0-0.7-0.2-0.7-1V68.6z M171.1,67.6V65c-0.8-0.2-1.7-0.3-2.8-0.3c-1.9,0-3.3,0.7-3.3,2.3c0,1.7,1.1,2.4,2.5,2.4
			C169.3,69.4,170.2,68.6,171.1,67.6z"/>
		<path class="st3" d="M173.8,59.4h1.4v-3h1v3h2.9v0.8h-2.9v7.5c0,1.3,0.6,1.7,1.8,1.7h1.2V70c-0.3,0.1-0.9,0.1-1.6,0.1
			c-1.6,0-2.5-0.7-2.5-2.4v-7.6h-1.4V59.4z"/>
		<path class="st3" d="M180.1,64.7c0-3.4,2-5.5,5-5.5c3,0,5,2.1,5,5.5c0,3.4-2,5.4-5,5.4C182.1,70.1,180.1,68.1,180.1,64.7z
			 M189,64.7c0-2.9-1.5-4.7-3.9-4.7c-2.4,0-3.9,1.7-3.9,4.7c0,2.9,1.5,4.6,3.9,4.6C187.5,69.3,189,67.6,189,64.7z"/>
		<path class="st3" d="M191.3,69.1v-0.8h0.4c0.5,0.5,1.5,1,3,1c2,0,2.9-0.8,2.9-2.3c0-1.3-0.7-1.8-2.9-2.1c-2.1-0.3-3.3-1-3.3-2.9
			c0-1.8,1.5-2.8,3.6-2.8c1.6,0,2.5,0.4,3.1,0.8v0.8h-0.4c-0.6-0.5-1.3-0.8-2.7-0.8c-1.7,0-2.6,0.7-2.6,2c0,1.2,0.7,1.7,2.8,2.1
			c2.2,0.3,3.5,1,3.5,2.9c0,2-1.2,3.2-3.9,3.2C193,70.1,192,69.6,191.3,69.1z"/>
		<path class="st3" d="M205,64.7c0-3.4,2.1-5.4,5.1-5.4c1.8,0,2.7,0.5,3.3,1v0.8h-0.5c-0.5-0.5-1.3-1-2.8-1c-2.4,0-4,1.7-4,4.6
			c0,2.9,1.5,4.6,4,4.6c1.7,0,2.6-0.7,3.1-1.2h0.5v0.8c-0.6,0.6-1.7,1.3-3.6,1.3C206.9,70.1,205,68.1,205,64.7z"/>
		<path class="st3" d="M214.9,64.7c0-3.4,2-5.5,5-5.5c3,0,5,2.1,5,5.5c0,3.4-2,5.4-5,5.4C216.9,70.1,214.9,68.1,214.9,64.7z
			 M223.8,64.7c0-2.9-1.5-4.7-3.9-4.7c-2.4,0-3.9,1.7-3.9,4.7c0,2.9,1.5,4.6,3.9,4.6C222.3,69.3,223.8,67.6,223.8,64.7z"/>
		<path class="st3" d="M228,61c1-0.8,2.5-1.7,4.3-1.7c1.1,0,2.2,0.5,2.5,1.8c1.1-0.9,2.6-1.8,4.3-1.8c1.5,0,2.6,0.7,2.6,2.6v8.2h-1
			v-7.9c0-1.6-0.8-2-2-2c-1.5,0-2.8,0.8-3.9,1.7v8.2h-1v-7.9c0-1.6-0.8-2-2-2c-1.6,0-2.8,0.8-3.9,1.7v8.2h-1V59.4h0.5
			c0.5,0,0.6,0.1,0.6,1.1V61z"/>
		<path class="st3" d="M245.7,61.3c0.8-1,2.2-2,4.1-2c2,0,4.1,1.2,4.1,5.3c0,4.2-2.4,5.5-4.6,5.5c-1.7,0-2.8-0.5-3.6-1.3v4.6h-1v-14
			h0.5c0.5,0,0.6,0.1,0.6,1.1V61.3z M245.7,62.3v5.6c0.8,0.9,1.8,1.4,3.4,1.4c1.8,0,3.7-0.9,3.7-4.6c0-3.7-1.7-4.6-3.2-4.6
			C247.8,60.1,246.6,61.2,245.7,62.3z"/>
		<path class="st3" d="M262.2,68.6c-0.9,0.9-1.9,1.6-3.7,1.6c-2,0-3.4-1.1-3.4-3.1c0-2.2,1.8-3.1,4.3-3.1c1,0,1.9,0.1,2.8,0.3v-1.9
			c0-1.7-1.1-2.3-2.6-2.3c-1.6,0-2.6,0.4-3.3,0.9h-0.4v-0.8c0.9-0.5,2.1-0.9,3.8-0.9c2.2,0,3.6,0.8,3.6,3v7.8H263
			c-0.6,0-0.7-0.2-0.7-1V68.6z M262.2,67.6V65c-0.8-0.2-1.7-0.3-2.8-0.3c-1.9,0-3.3,0.7-3.3,2.3c0,1.7,1.1,2.4,2.5,2.4
			C260.4,69.4,261.4,68.6,262.2,67.6z"/>
		<path class="st3" d="M267.2,61.1c1.2-1,2.8-1.8,4.7-1.8c1.5,0,2.8,0.6,2.8,2.9v8h-1v-7.8c0-1.7-0.9-2.1-2.1-2.1
			c-1.6,0-3.1,0.9-4.3,1.8v8.2h-1V59.4h0.5c0.5,0,0.6,0.1,0.6,1.1V61.1z"/>
		<path class="st3" d="M279,73.1l1.6-3.7l-4.3-9.6v-0.3h0.9l3.8,8.7h0l3.6-8.7h0.9v0.3l-5.8,13.7H279V73.1z"/>
	</g>
</g>
</svg>
