<?xml version="1.0" encoding="UTF-8"?> <svg xmlns="http://www.w3.org/2000/svg" xmlns:xlink="http://www.w3.org/1999/xlink" width="217px" height="55px" viewBox="0 0 217 55" version="1.1"><!-- Generator: Sketch 63.1 (92452) - https://sketch.com --><title>logo/blanc</title><desc>Created with Sketch.</desc><defs><polygon id="path-1" points="0 54.4075521 217 54.4075521 217 0.553385417 0 0.553385417"></polygon></defs><g id="Symbols" stroke="none" stroke-width="1" fill="none" fill-rule="evenodd"><g id="header/vous-cherchez" transform="translate(-21.000000, -65.000000)"><g id="logo/blanc" transform="translate(21.000000, 65.000000)"><g id="Group-26"><path d="M46.7812304,11.8498643 C50.7651489,11.8498643 52.4439115,9.68765772 52.4439115,6.94399575 C52.4439115,4.13577978 50.8966053,2.10197697 46.7812304,2.10197697 L14.5061754,2.10197697 L14.5061754,11.8498643 L46.7812304,11.8498643 Z M14.5061754,13.3996295 L14.5061754,23.4700521 L12.6296296,23.4700521 L12.6296296,0.553385417 L46.9129263,0.553385417 C52.5758468,0.553385417 54.3867841,3.55479387 54.3867841,6.94399575 C54.3867841,9.84916006 52.7075426,12.5601929 48.4274283,13.1733385 L55.1111111,23.4700521 L52.93813,23.4700521 L46.386143,13.3996295 L14.5061754,13.3996295 Z" id="Fill-1" fill="#FFFFFF"></path><polygon id="Fill-3" fill="#FFFFFF" points="76.9259259 23.4700521 59.7037037 23.4700521 59.7037037 0.553385417 76.6994355 0.553385417 76.6994355 2.10197697 61.5488241 2.10197697 61.5488241 10.9465779 76.1489836 10.9465779 76.1489836 12.4958737 61.5488241 12.4958737 61.5488241 21.9207563 76.9259259 21.9207563"></polygon><path d="M93.482473,4.81371406 L92.4571138,2.19939481 L92.394964,2.19939481 L91.3693789,4.81371406 L86.8324416,15.4331976 L98.0196362,15.4331976 L93.482473,4.81371406 Z M86.1487935,16.9820239 L83.3830133,23.4700521 L81.5185185,23.4700521 L91.5560544,0.553385417 L93.2962495,0.553385417 L103.333333,23.4700521 L101.468839,23.4700521 L98.7032843,16.9820239 L86.1487935,16.9820239 Z" id="Fill-5" fill="#FFFFFF"></path><path d="M106.777778,12.52082 C106.777778,5.36579209 111.115777,0.553385417 118.282529,0.553385417 C124.160408,0.553385417 127.80665,3.79408923 128.592593,8.76679279 L126.737924,8.92708968 C126.046624,4.72413786 122.96595,2.12555493 118.188115,2.12555493 C112.27846,2.12555493 108.631989,6.19994257 108.631989,12.52082 C108.631989,18.7126666 112.152956,23.0441826 118.250981,23.0441826 C122.777351,23.0441826 125.857797,20.6371626 126.832338,16.5305756 L128.592593,16.7555045 C127.461,21.4398137 124.034676,24.6158854 118.188115,24.6158854 C110.76967,24.6158854 106.777778,19.5468171 106.777778,12.52082" id="Fill-7" fill="#FFFFFF"></path><polygon id="Fill-9" fill="#FFFFFF" points="141.535333 2.10197697 141.535333 23.4700521 139.760733 23.4700521 139.760733 2.10197697 130.888889 2.10197697 130.888889 0.553385417 150.407407 0.553385417 150.407407 2.10197697"></polygon><mask id="mask-2" fill="white"><use xlink:href="#path-1"></use></mask><g id="Clip-12"></g><polygon id="Fill-11" fill="#FFFFFF" mask="url(#mask-2)" points="155 23.4700521 156.148148 23.4700521 156.148148 0.553385417 155 0.553385417"></polygon><path d="M162.691782,0.553385417 L170.62459,18.9188784 C171.104267,20.1777986 171.392259,20.9202868 171.583943,21.6625403 L171.680018,21.6625403 C171.872168,20.9202868 172.159695,20.1777986 172.671474,18.9188784 L180.572644,0.553385417 L182.555556,0.553385417 L172.639604,23.4700521 L170.655995,23.4700521 L160.740741,0.553385417 L162.691782,0.553385417 Z" id="Fill-13" fill="#FFFFFF" mask="url(#mask-2)"></path><polygon id="Fill-14" fill="#FFFFFF" mask="url(#mask-2)" points="204.37037 23.4700521 187.148148 23.4700521 187.148148 0.553385417 204.14388 0.553385417 204.14388 2.10197697 188.993269 2.10197697 188.993269 10.9465779 203.593663 10.9465779 203.593663 12.4958737 188.993269 12.4958737 188.993269 21.9207563 204.37037 21.9207563"></polygon><polygon id="Fill-15" fill="#FFFFFF" mask="url(#mask-2)" points="29.8518519 53.2617188 12.6296296 53.2617188 12.6296296 30.3450521 29.6253614 30.3450521 29.6253614 31.8947856 14.47475 31.8947856 14.47475 40.7380317 29.0749095 40.7380317 29.0749095 42.2877652 14.47475 42.2877652 14.47475 51.7124547 29.8518519 51.7124547"></polygon><path d="M35.1190018,30.3450521 L37.4001598,30.3450521 L44.3719095,38.8343148 C44.7896818,39.3826604 45.078711,39.7373479 45.3677403,40.1894513 L45.3999844,40.1894513 C45.6890137,39.7054237 45.9782766,39.3826604 46.3960488,38.866239 L53.3355544,30.3450521 L55.5522241,30.3450521 L46.5243245,41.3840278 L56.2592593,53.2617188 L53.9458571,53.2617188 L46.5885792,44.1921862 C46.0102871,43.4497132 45.6890137,43.0945561 45.3359634,42.4816579 L45.2712414,42.4816579 C44.9179575,43.0621624 44.5324294,43.5785838 44.0186256,44.1921862 L36.6293373,53.2617188 L34.4444444,53.2617188 L44.211156,41.3197099 L35.1190018,30.3450521 Z" id="Fill-16" fill="#FFFFFF" mask="url(#mask-2)"></path><polygon id="Fill-17" fill="#FFFFFF" mask="url(#mask-2)" points="76.9259259 53.2617188 59.7037037 53.2617188 59.7037037 30.3450521 76.6994355 30.3450521 76.6994355 31.8947856 61.5488241 31.8947856 61.5488241 40.7380317 76.1489836 40.7380317 76.1489836 42.2877652 61.5488241 42.2877652 61.5488241 51.7124547 76.9259259 51.7124547"></polygon><path d="M81.5185185,42.31202 C81.5185185,35.1579254 85.8565179,30.3450521 93.0232695,30.3450521 C98.9011489,30.3450521 102.547391,33.5852892 103.333333,38.5584595 L101.478665,38.7187564 C100.787365,34.5162712 97.7066903,31.9172216 92.9288559,31.9172216 C87.0192005,31.9172216 83.3727298,35.9920759 83.3727298,42.31202 C83.3727298,48.5043332 86.8936966,52.8353826 92.9917221,52.8353826 C97.5180916,52.8353826 100.598537,50.4295292 101.573079,46.3229422 L103.333333,46.5474045 C102.201741,51.2314803 98.7754164,54.4075521 92.9288559,54.4075521 C85.5104106,54.4075521 81.5185185,49.3384837 81.5185185,42.31202" id="Fill-18" fill="#FFFFFF" mask="url(#mask-2)"></path><path d="M110.895034,44.1267409 C110.895034,48.6469705 113.706162,51.691887 118.817535,51.691887 C123.928676,51.691887 126.771632,48.6469705 126.771632,44.1267409 L126.771632,30.3450521 L128.592593,30.3450521 L128.592593,44.1895251 C128.592593,49.5889609 125.078683,53.2617188 118.817535,53.2617188 C112.492266,53.2617188 109.074074,49.5889609 109.074074,44.1895251 L109.074074,30.3450521 L110.895034,30.3450521 L110.895034,44.1267409 Z" id="Fill-19" fill="#FFFFFF" mask="url(#mask-2)"></path><polygon id="Fill-20" fill="#FFFFFF" mask="url(#mask-2)" points="141.535333 31.8947856 141.535333 53.2617188 139.760733 53.2617188 139.760733 31.8947856 130.888889 31.8947856 130.888889 30.3450521 150.407407 30.3450521 150.407407 31.8947856"></polygon><polygon id="Fill-21" fill="#FFFFFF" mask="url(#mask-2)" points="155 53.2617188 156.148148 53.2617188 156.148148 30.3450521 155 30.3450521"></polygon><path d="M162.691782,30.3450521 L170.62459,48.7106383 C171.104267,49.9695327 171.392259,50.7120057 171.583943,51.454244 L171.680018,51.454244 C171.872168,50.7120057 172.159695,49.9695327 172.671474,48.7106383 L180.572644,30.3450521 L182.555556,30.3450521 L172.639604,53.2617188 L170.655995,53.2617188 L160.740741,30.3450521 L162.691782,30.3450521 Z" id="Fill-22" fill="#FFFFFF" mask="url(#mask-2)"></path><polygon id="Fill-23" fill="#FFFFFF" mask="url(#mask-2)" points="204.37037 53.2617188 187.148148 53.2617188 187.148148 30.3450521 204.14388 30.3450521 204.14388 31.8947856 188.993269 31.8947856 188.993269 40.7380317 203.593663 40.7380317 203.593663 42.2877652 188.993269 42.2877652 188.993269 51.7124547 204.37037 51.7124547"></polygon><polygon id="Fill-24" fill="#FF0000" mask="url(#mask-2)" points="215.851852 54.4075521 217 54.4075521 217 0.553385417 215.851852 0.553385417"></polygon><polygon id="Fill-25" fill="#FF0000" mask="url(#mask-2)" points="0 54.4075521 1.14814815 54.4075521 1.14814815 0.553385417 0 0.553385417"></polygon></g></g></g></g></svg> 