<?xml version="1.0" encoding="UTF-8" standalone="no"?>
<svg
   xmlns:dc="http://purl.org/dc/elements/1.1/"
   xmlns:cc="http://creativecommons.org/ns#"
   xmlns:rdf="http://www.w3.org/1999/02/22-rdf-syntax-ns#"
   xmlns:svg="http://www.w3.org/2000/svg"
   xmlns="http://www.w3.org/2000/svg"
   xmlns:sodipodi="http://sodipodi.sourceforge.net/DTD/sodipodi-0.dtd"
   xmlns:inkscape="http://www.inkscape.org/namespaces/inkscape"
   version="1.1"
   id="Layer_1"
   x="0px"
   y="0px"
   width="2000"
   height="406.51926"
   viewBox="0 0 2000 406.51924"
   enable-background="new 0 0 123 24.2"
   xml:space="preserve"
   sodipodi:docname="Renault Sport Logo 2015.svg"
   inkscape:version="1.0 (4035a4fb49, 2020-05-01)"><metadata
   id="metadata17"><rdf:RDF><cc:Work
       rdf:about=""><dc:format>image/svg+xml</dc:format><dc:type
         rdf:resource="http://purl.org/dc/dcmitype/StillImage" /><dc:title /></cc:Work></rdf:RDF></metadata><defs
   id="defs15">
	
	
	
	
</defs><sodipodi:namedview
   inkscape:document-rotation="0"
   pagecolor="#ffffff"
   bordercolor="#666666"
   borderopacity="1"
   objecttolerance="10"
   gridtolerance="10"
   guidetolerance="10"
   inkscape:pageopacity="0"
   inkscape:pageshadow="2"
   inkscape:window-width="1920"
   inkscape:window-height="986"
   id="namedview13"
   showgrid="false"
   inkscape:zoom="0.56324665"
   inkscape:cx="2289.9267"
   inkscape:cy="700.63572"
   inkscape:window-x="-11"
   inkscape:window-y="-11"
   inkscape:window-maximized="1"
   inkscape:current-layer="Layer_1"
   fit-margin-top="0"
   fit-margin-left="0"
   fit-margin-right="0"
   fit-margin-bottom="0" />

<path
   id="path2"
   style="opacity:1;fill:#171714;stroke-width:16.1596;fill-opacity:1"
   d="m 1693.2344,7.7117745 c -51.0482,0 -83.0502,5.5082035 -108.2754,21.3769535 -26.2108,16.1273 -45.5537,37.488095 -52.8418,72.796872 -1.0305,6.25082 -1.7238,10.94826 -2.6445,15.83984 -2.1331,10.19672 -3.295,25.56618 -3.295,34.8418 0,29.2974 10.3727,51.13926 29.9258,66.76563 20.7328,17.03225 52.6501,24.62695 103.4883,24.62695 h 118.2305 c 16.1274,0 24.1561,2.16462 29.5859,6.2207 5.0741,3.65206 8.8751,10.75374 8.875,19.4961 0,3.08649 -0.5158,8.24064 -1.5176,12.18359 l -1.1484,4.42773 c -4.8802,20.23185 -14.8817,31.3418 -41.1895,31.3418 H 1508.332 l -16.789,81.17774 h 259.1875 c 54.2273,0 107.2405,-9.47727 138.6504,-53.01172 0.8143,-1.41043 1.6023,-2.83778 2.3711,-4.27735 l -11.004,57.27149 h 98.4747 L 2000,300.61021 h -93.416 c 3.121,-14.28953 4.6992,-29.78315 4.6992,-46.70703 0,-29.28126 -8.753,-50.85555 -28.3223,-66.49805 -18.4689,-15.1461 -50.2295,-24.35547 -98.6171,-24.35547 h -119.8575 c -16.0949,0 -26.851,-1.4434 -32.2968,-5.51562 -5.0742,-3.6844 -8.8672,-12.01315 -8.8672,-20.70703 0,-3.08649 0.5332,-8.27277 1.5351,-12.24805 l 1.0664,-4.34766 c 4.9449,-20.2157 17.6687,-31.763666 43.9766,-31.763666 h 246.1426 l 18.3711,-80.7558595 z" /><path
   id="path4"
   style="opacity:1;fill:#171714;stroke-width:16.1596;fill-opacity:1"
   d="m 984.78125,7.7117745 c -1.34125,0 -2.56936,0.8240694 -3.07031,2.0683594 l -13.2793,34.2988281 19.3457,19.191406 c 8.28989,7.83742 8.84748,12.748296 5.8418,26.791016 L 928.85547,398.7899 h 98.35153 l 25.1055,-120.87305 h 130.3809 l 60.6308,120.87305 h 187.0117 l 25.3672,-98.17969 H 1354.168 l -17.0391,71.31836 -52.8457,-100.38867 c 24.3041,-5.70436 44.7417,-14.38726 60.7559,-30.36914 20.6323,-20.63224 36.1016,-42.12826 45.1718,-84.16016 l 2.1817,-10.32617 c 2.8602,-13.18624 2.789,-30.22857 2.789,-41.6211 0,-23.900093 -6.3606,-44.233663 -19.7246,-60.312493 C 1353.5274,20.465447 1326.3483,7.7117745 1254.3242,7.7117745 Z M 1090.5078,88.823103 h 167.8438 c 19.4631,0 35.2048,8.804926 37.7832,29.816407 0.6762,5.51006 0.4265,9.21096 0.1914,16.1582 l -1.6328,12.75977 c -4.9128,25.31534 -27.0733,48.28906 -52.0821,48.28906 h -172.416 z"
   sodipodi:nodetypes="scccccccccccccccccscsscssccscc" /><path
   style="fill:#f4d325;stroke:none;stroke-width:0.898209px;stroke-linecap:butt;stroke-linejoin:miter;stroke-opacity:1;fill-opacity:1"
   d="M 434.6149,203.25963 0,304.81321 391.86552,406.51925 826.43979,304.72191 Z"
   id="path48" /><path
   id="path48-2"
   d="M 477.36428,0 42.74936,101.55358 434.6149,203.25963 869.18917,101.46228 Z"
   style="fill:#f4d325;stroke:none;stroke-width:0.898209px;stroke-linecap:butt;stroke-linejoin:miter;stroke-opacity:1;fill-opacity:1" /></svg>
